<mxfile host="Electron" modified="2024-07-02T20:41:16.745Z" agent="Mozilla/5.0 (X11; Linux x86_64) AppleWebKit/537.36 (KHTML, like Gecko) draw.io/24.5.3 Chrome/124.0.6367.207 Electron/30.0.6 Safari/537.36" etag="qLcMJEww-X3RDS9grg_D" version="24.5.3" type="device">
  <diagram name="Page-1" id="zl41RH3ckksVXTjhBA68">
    <mxGraphModel dx="3604" dy="1653" grid="0" gridSize="10" guides="1" tooltips="1" connect="1" arrows="1" fold="1" page="0" pageScale="1" pageWidth="1654" pageHeight="1169" math="0" shadow="0">
      <root>
        <mxCell id="0" />
        <mxCell id="1" parent="0" />
        <mxCell id="ICtoHCyXIjiTrCWNcMUN-7" style="edgeStyle=none;curved=1;rounded=0;orthogonalLoop=1;jettySize=auto;html=1;fontSize=12;startSize=8;endSize=8;" parent="1" source="ICtoHCyXIjiTrCWNcMUN-1" target="ICtoHCyXIjiTrCWNcMUN-6" edge="1">
          <mxGeometry relative="1" as="geometry" />
        </mxCell>
        <mxCell id="ICtoHCyXIjiTrCWNcMUN-1" value="pointwise:mul" style="rounded=1;whiteSpace=wrap;html=1;fillColor=#f8cecc;strokeColor=#b85450;" parent="1" vertex="1">
          <mxGeometry x="216" y="-216" width="120" height="60" as="geometry" />
        </mxCell>
        <mxCell id="ICtoHCyXIjiTrCWNcMUN-4" style="edgeStyle=none;curved=1;rounded=0;orthogonalLoop=1;jettySize=auto;html=1;fontSize=12;startSize=8;endSize=8;" parent="1" source="ICtoHCyXIjiTrCWNcMUN-2" target="ICtoHCyXIjiTrCWNcMUN-1" edge="1">
          <mxGeometry relative="1" as="geometry" />
        </mxCell>
        <mxCell id="ICtoHCyXIjiTrCWNcMUN-2" value="O" style="ellipse;whiteSpace=wrap;html=1;aspect=fixed;fillColor=#d5e8d4;strokeColor=#82b366;" parent="1" vertex="1">
          <mxGeometry x="82" y="-345" width="80" height="80" as="geometry" />
        </mxCell>
        <mxCell id="ICtoHCyXIjiTrCWNcMUN-5" style="edgeStyle=none;curved=1;rounded=0;orthogonalLoop=1;jettySize=auto;html=1;fontSize=12;startSize=8;endSize=8;" parent="1" source="ICtoHCyXIjiTrCWNcMUN-3" target="ICtoHCyXIjiTrCWNcMUN-1" edge="1">
          <mxGeometry relative="1" as="geometry" />
        </mxCell>
        <mxCell id="ICtoHCyXIjiTrCWNcMUN-3" value="dO" style="ellipse;whiteSpace=wrap;html=1;aspect=fixed;fillColor=#d5e8d4;strokeColor=#82b366;" parent="1" vertex="1">
          <mxGeometry x="413" y="-345" width="80" height="80" as="geometry" />
        </mxCell>
        <mxCell id="ICtoHCyXIjiTrCWNcMUN-10" style="edgeStyle=none;curved=1;rounded=0;orthogonalLoop=1;jettySize=auto;html=1;fontSize=12;startSize=8;endSize=8;" parent="1" source="ICtoHCyXIjiTrCWNcMUN-6" target="ICtoHCyXIjiTrCWNcMUN-8" edge="1">
          <mxGeometry relative="1" as="geometry" />
        </mxCell>
        <mxCell id="ICtoHCyXIjiTrCWNcMUN-6" value="reduction:add" style="rounded=1;whiteSpace=wrap;html=1;fillColor=#f8cecc;strokeColor=#b85450;" parent="1" vertex="1">
          <mxGeometry x="216" y="-107" width="120" height="60" as="geometry" />
        </mxCell>
        <mxCell id="ICtoHCyXIjiTrCWNcMUN-11" style="edgeStyle=none;curved=1;rounded=0;orthogonalLoop=1;jettySize=auto;html=1;fontSize=12;startSize=8;endSize=8;" parent="1" source="ICtoHCyXIjiTrCWNcMUN-8" target="ICtoHCyXIjiTrCWNcMUN-9" edge="1">
          <mxGeometry relative="1" as="geometry" />
        </mxCell>
        <mxCell id="ICtoHCyXIjiTrCWNcMUN-8" value="pointwise:mul" style="rounded=1;whiteSpace=wrap;html=1;fillColor=#f8cecc;strokeColor=#b85450;" parent="1" vertex="1">
          <mxGeometry x="216" y="2" width="120" height="60" as="geometry" />
        </mxCell>
        <mxCell id="ICtoHCyXIjiTrCWNcMUN-122" style="edgeStyle=none;curved=1;rounded=0;orthogonalLoop=1;jettySize=auto;html=1;fontSize=12;startSize=8;endSize=8;" parent="1" source="ICtoHCyXIjiTrCWNcMUN-9" target="ICtoHCyXIjiTrCWNcMUN-119" edge="1">
          <mxGeometry relative="1" as="geometry" />
        </mxCell>
        <mxCell id="ICtoHCyXIjiTrCWNcMUN-9" value="pointwise:mul" style="rounded=1;whiteSpace=wrap;html=1;fillColor=#f8cecc;strokeColor=#b85450;" parent="1" vertex="1">
          <mxGeometry x="216" y="111" width="120" height="60" as="geometry" />
        </mxCell>
        <mxCell id="ICtoHCyXIjiTrCWNcMUN-14" style="edgeStyle=none;curved=1;rounded=0;orthogonalLoop=1;jettySize=auto;html=1;fontSize=12;startSize=8;endSize=8;" parent="1" source="ICtoHCyXIjiTrCWNcMUN-12" target="ICtoHCyXIjiTrCWNcMUN-8" edge="1">
          <mxGeometry relative="1" as="geometry" />
        </mxCell>
        <mxCell id="ICtoHCyXIjiTrCWNcMUN-12" value="Descale_dO" style="ellipse;whiteSpace=wrap;html=1;aspect=fixed;fillColor=#d5e8d4;strokeColor=#82b366;" parent="1" vertex="1">
          <mxGeometry x="413" y="-117" width="80" height="80" as="geometry" />
        </mxCell>
        <mxCell id="ICtoHCyXIjiTrCWNcMUN-15" style="edgeStyle=none;curved=1;rounded=0;orthogonalLoop=1;jettySize=auto;html=1;fontSize=12;startSize=8;endSize=8;" parent="1" source="ICtoHCyXIjiTrCWNcMUN-13" target="ICtoHCyXIjiTrCWNcMUN-9" edge="1">
          <mxGeometry relative="1" as="geometry" />
        </mxCell>
        <mxCell id="ICtoHCyXIjiTrCWNcMUN-13" value="Descale_O" style="ellipse;whiteSpace=wrap;html=1;aspect=fixed;fillColor=#d5e8d4;strokeColor=#82b366;" parent="1" vertex="1">
          <mxGeometry x="413" y="-8" width="80" height="80" as="geometry" />
        </mxCell>
        <mxCell id="ICtoHCyXIjiTrCWNcMUN-24" style="edgeStyle=none;curved=1;rounded=0;orthogonalLoop=1;jettySize=auto;html=1;fontSize=12;startSize=8;endSize=8;" parent="1" source="ICtoHCyXIjiTrCWNcMUN-18" target="ICtoHCyXIjiTrCWNcMUN-23" edge="1">
          <mxGeometry relative="1" as="geometry" />
        </mxCell>
        <mxCell id="ICtoHCyXIjiTrCWNcMUN-18" value="matmul" style="rounded=1;whiteSpace=wrap;html=1;fillColor=#f8cecc;strokeColor=#b85450;" parent="1" vertex="1">
          <mxGeometry x="-931" y="-216" width="120" height="60" as="geometry" />
        </mxCell>
        <mxCell id="ICtoHCyXIjiTrCWNcMUN-19" style="edgeStyle=none;curved=1;rounded=0;orthogonalLoop=1;jettySize=auto;html=1;fontSize=12;startSize=8;endSize=8;" parent="1" source="ICtoHCyXIjiTrCWNcMUN-20" target="ICtoHCyXIjiTrCWNcMUN-18" edge="1">
          <mxGeometry relative="1" as="geometry" />
        </mxCell>
        <mxCell id="ICtoHCyXIjiTrCWNcMUN-20" value="Q" style="ellipse;whiteSpace=wrap;html=1;aspect=fixed;fillColor=#d5e8d4;strokeColor=#82b366;" parent="1" vertex="1">
          <mxGeometry x="-1065" y="-345" width="80" height="80" as="geometry" />
        </mxCell>
        <mxCell id="ICtoHCyXIjiTrCWNcMUN-21" style="edgeStyle=none;curved=1;rounded=0;orthogonalLoop=1;jettySize=auto;html=1;fontSize=12;startSize=8;endSize=8;" parent="1" source="ICtoHCyXIjiTrCWNcMUN-22" target="ICtoHCyXIjiTrCWNcMUN-18" edge="1">
          <mxGeometry relative="1" as="geometry" />
        </mxCell>
        <mxCell id="ICtoHCyXIjiTrCWNcMUN-22" value="K&lt;br&gt;transposed" style="ellipse;whiteSpace=wrap;html=1;aspect=fixed;fillColor=#d5e8d4;strokeColor=#82b366;" parent="1" vertex="1">
          <mxGeometry x="-734" y="-345" width="80" height="80" as="geometry" />
        </mxCell>
        <mxCell id="ICtoHCyXIjiTrCWNcMUN-33" style="edgeStyle=none;curved=1;rounded=0;orthogonalLoop=1;jettySize=auto;html=1;fontSize=12;startSize=8;endSize=8;" parent="1" source="ICtoHCyXIjiTrCWNcMUN-23" target="ICtoHCyXIjiTrCWNcMUN-29" edge="1">
          <mxGeometry relative="1" as="geometry" />
        </mxCell>
        <mxCell id="ICtoHCyXIjiTrCWNcMUN-23" value="pointwise:mul" style="rounded=1;whiteSpace=wrap;html=1;gradientDirection=north;" parent="1" vertex="1">
          <mxGeometry x="-931" y="-107" width="120" height="60" as="geometry" />
        </mxCell>
        <mxCell id="ICtoHCyXIjiTrCWNcMUN-26" style="edgeStyle=none;curved=1;rounded=0;orthogonalLoop=1;jettySize=auto;html=1;fontSize=12;startSize=8;endSize=8;" parent="1" source="ICtoHCyXIjiTrCWNcMUN-25" target="ICtoHCyXIjiTrCWNcMUN-23" edge="1">
          <mxGeometry relative="1" as="geometry" />
        </mxCell>
        <mxCell id="ICtoHCyXIjiTrCWNcMUN-25" value="Attn_scale" style="ellipse;whiteSpace=wrap;html=1;aspect=fixed;gradientDirection=north;" parent="1" vertex="1">
          <mxGeometry x="-734" y="-226" width="80" height="80" as="geometry" />
        </mxCell>
        <mxCell id="ICtoHCyXIjiTrCWNcMUN-31" style="edgeStyle=none;curved=1;rounded=0;orthogonalLoop=1;jettySize=auto;html=1;fontSize=12;startSize=8;endSize=8;" parent="1" source="ICtoHCyXIjiTrCWNcMUN-27" target="ICtoHCyXIjiTrCWNcMUN-29" edge="1">
          <mxGeometry relative="1" as="geometry" />
        </mxCell>
        <mxCell id="ICtoHCyXIjiTrCWNcMUN-27" value="Descale_Q" style="ellipse;whiteSpace=wrap;html=1;aspect=fixed;fillColor=#d5e8d4;strokeColor=#82b366;" parent="1" vertex="1">
          <mxGeometry x="-734" y="-117" width="80" height="80" as="geometry" />
        </mxCell>
        <mxCell id="ICtoHCyXIjiTrCWNcMUN-32" style="edgeStyle=none;curved=1;rounded=0;orthogonalLoop=1;jettySize=auto;html=1;fontSize=12;startSize=8;endSize=8;" parent="1" source="ICtoHCyXIjiTrCWNcMUN-28" target="ICtoHCyXIjiTrCWNcMUN-30" edge="1">
          <mxGeometry relative="1" as="geometry" />
        </mxCell>
        <mxCell id="ICtoHCyXIjiTrCWNcMUN-28" value="Descale_K" style="ellipse;whiteSpace=wrap;html=1;aspect=fixed;fillColor=#d5e8d4;strokeColor=#82b366;" parent="1" vertex="1">
          <mxGeometry x="-734" y="-8" width="80" height="80" as="geometry" />
        </mxCell>
        <mxCell id="ICtoHCyXIjiTrCWNcMUN-34" style="edgeStyle=none;curved=1;rounded=0;orthogonalLoop=1;jettySize=auto;html=1;fontSize=12;startSize=8;endSize=8;" parent="1" source="ICtoHCyXIjiTrCWNcMUN-29" target="ICtoHCyXIjiTrCWNcMUN-30" edge="1">
          <mxGeometry relative="1" as="geometry" />
        </mxCell>
        <mxCell id="ICtoHCyXIjiTrCWNcMUN-29" value="pointwise:mul" style="rounded=1;whiteSpace=wrap;html=1;fillColor=#f8cecc;strokeColor=#b85450;" parent="1" vertex="1">
          <mxGeometry x="-931" y="2" width="120" height="60" as="geometry" />
        </mxCell>
        <mxCell id="ICtoHCyXIjiTrCWNcMUN-38" style="edgeStyle=none;curved=1;rounded=0;orthogonalLoop=1;jettySize=auto;html=1;fontSize=12;startSize=8;endSize=8;" parent="1" source="ICtoHCyXIjiTrCWNcMUN-30" target="ICtoHCyXIjiTrCWNcMUN-35" edge="1">
          <mxGeometry relative="1" as="geometry" />
        </mxCell>
        <mxCell id="ICtoHCyXIjiTrCWNcMUN-39" style="edgeStyle=none;curved=1;rounded=0;orthogonalLoop=1;jettySize=auto;html=1;fontSize=12;startSize=8;endSize=8;" parent="1" source="ICtoHCyXIjiTrCWNcMUN-30" target="ICtoHCyXIjiTrCWNcMUN-36" edge="1">
          <mxGeometry relative="1" as="geometry" />
        </mxCell>
        <mxCell id="ICtoHCyXIjiTrCWNcMUN-53" style="edgeStyle=none;curved=1;rounded=0;orthogonalLoop=1;jettySize=auto;html=1;fontSize=12;startSize=8;endSize=8;" parent="1" source="ICtoHCyXIjiTrCWNcMUN-30" target="ICtoHCyXIjiTrCWNcMUN-43" edge="1">
          <mxGeometry relative="1" as="geometry" />
        </mxCell>
        <mxCell id="ICtoHCyXIjiTrCWNcMUN-30" value="pointwise:mul" style="rounded=1;whiteSpace=wrap;html=1;fillColor=#f8cecc;strokeColor=#b85450;" parent="1" vertex="1">
          <mxGeometry x="-931" y="111" width="120" height="60" as="geometry" />
        </mxCell>
        <mxCell id="ICtoHCyXIjiTrCWNcMUN-41" style="edgeStyle=none;curved=1;rounded=0;orthogonalLoop=1;jettySize=auto;html=1;fontSize=12;startSize=8;endSize=8;" parent="1" source="ICtoHCyXIjiTrCWNcMUN-35" target="ICtoHCyXIjiTrCWNcMUN-40" edge="1">
          <mxGeometry relative="1" as="geometry" />
        </mxCell>
        <mxCell id="ICtoHCyXIjiTrCWNcMUN-35" value="pointwise:genindex:2" style="rounded=1;whiteSpace=wrap;html=1;" parent="1" vertex="1">
          <mxGeometry x="-1295" y="226" width="120" height="60" as="geometry" />
        </mxCell>
        <mxCell id="ICtoHCyXIjiTrCWNcMUN-42" style="edgeStyle=none;curved=1;rounded=0;orthogonalLoop=1;jettySize=auto;html=1;fontSize=12;startSize=8;endSize=8;" parent="1" source="ICtoHCyXIjiTrCWNcMUN-36" target="ICtoHCyXIjiTrCWNcMUN-40" edge="1">
          <mxGeometry relative="1" as="geometry" />
        </mxCell>
        <mxCell id="ICtoHCyXIjiTrCWNcMUN-36" value="pointwise:genindex:3" style="rounded=1;whiteSpace=wrap;html=1;" parent="1" vertex="1">
          <mxGeometry x="-1055" y="226" width="120" height="60" as="geometry" />
        </mxCell>
        <mxCell id="ICtoHCyXIjiTrCWNcMUN-48" style="edgeStyle=none;curved=1;rounded=0;orthogonalLoop=1;jettySize=auto;html=1;fontSize=12;startSize=8;endSize=8;" parent="1" source="ICtoHCyXIjiTrCWNcMUN-40" target="ICtoHCyXIjiTrCWNcMUN-43" edge="1">
          <mxGeometry relative="1" as="geometry" />
        </mxCell>
        <mxCell id="ICtoHCyXIjiTrCWNcMUN-40" value="pointwise:cmp_ge" style="rounded=1;whiteSpace=wrap;html=1;" parent="1" vertex="1">
          <mxGeometry x="-1175" y="335" width="120" height="60" as="geometry" />
        </mxCell>
        <mxCell id="ICtoHCyXIjiTrCWNcMUN-54" style="edgeStyle=none;curved=1;rounded=0;orthogonalLoop=1;jettySize=auto;html=1;fontSize=12;startSize=8;endSize=8;" parent="1" source="ICtoHCyXIjiTrCWNcMUN-43" target="ICtoHCyXIjiTrCWNcMUN-52" edge="1">
          <mxGeometry relative="1" as="geometry" />
        </mxCell>
        <mxCell id="ICtoHCyXIjiTrCWNcMUN-43" value="pointwise:binary_select" style="rounded=1;whiteSpace=wrap;html=1;" parent="1" vertex="1">
          <mxGeometry x="-945.5" y="335" width="149" height="60" as="geometry" />
        </mxCell>
        <mxCell id="ICtoHCyXIjiTrCWNcMUN-47" style="edgeStyle=none;curved=1;rounded=0;orthogonalLoop=1;jettySize=auto;html=1;fontSize=12;startSize=8;endSize=8;" parent="1" source="ICtoHCyXIjiTrCWNcMUN-46" target="ICtoHCyXIjiTrCWNcMUN-43" edge="1">
          <mxGeometry relative="1" as="geometry" />
        </mxCell>
        <mxCell id="ICtoHCyXIjiTrCWNcMUN-46" value="-in&lt;span style=&quot;background-color: initial;&quot;&gt;f&lt;/span&gt;" style="ellipse;whiteSpace=wrap;html=1;aspect=fixed;" parent="1" vertex="1">
          <mxGeometry x="-734" y="216" width="80" height="80" as="geometry" />
        </mxCell>
        <mxCell id="ICtoHCyXIjiTrCWNcMUN-61" style="edgeStyle=none;curved=1;rounded=0;orthogonalLoop=1;jettySize=auto;html=1;entryX=0.5;entryY=0;entryDx=0;entryDy=0;fontSize=12;startSize=8;endSize=8;" parent="1" source="ICtoHCyXIjiTrCWNcMUN-52" target="ICtoHCyXIjiTrCWNcMUN-59" edge="1">
          <mxGeometry relative="1" as="geometry" />
        </mxCell>
        <mxCell id="ICtoHCyXIjiTrCWNcMUN-52" value="pointwise:sub" style="rounded=1;whiteSpace=wrap;html=1;fillColor=#f8cecc;strokeColor=#b85450;" parent="1" vertex="1">
          <mxGeometry x="-931" y="447" width="120" height="60" as="geometry" />
        </mxCell>
        <mxCell id="ICtoHCyXIjiTrCWNcMUN-56" style="edgeStyle=none;curved=1;rounded=0;orthogonalLoop=1;jettySize=auto;html=1;fontSize=12;startSize=8;endSize=8;" parent="1" source="ICtoHCyXIjiTrCWNcMUN-55" target="ICtoHCyXIjiTrCWNcMUN-52" edge="1">
          <mxGeometry relative="1" as="geometry" />
        </mxCell>
        <mxCell id="ICtoHCyXIjiTrCWNcMUN-55" value="Stats" style="ellipse;whiteSpace=wrap;html=1;aspect=fixed;fillColor=#d5e8d4;strokeColor=#82b366;" parent="1" vertex="1">
          <mxGeometry x="-734" y="325" width="80" height="80" as="geometry" />
        </mxCell>
        <mxCell id="ICtoHCyXIjiTrCWNcMUN-66" style="edgeStyle=none;curved=1;rounded=0;orthogonalLoop=1;jettySize=auto;html=1;fontSize=12;startSize=8;endSize=8;" parent="1" source="ICtoHCyXIjiTrCWNcMUN-59" target="ICtoHCyXIjiTrCWNcMUN-65" edge="1">
          <mxGeometry relative="1" as="geometry" />
        </mxCell>
        <mxCell id="ICtoHCyXIjiTrCWNcMUN-124" style="edgeStyle=none;curved=1;rounded=0;orthogonalLoop=1;jettySize=auto;html=1;fontSize=12;startSize=8;endSize=8;" parent="1" source="ICtoHCyXIjiTrCWNcMUN-59" target="ICtoHCyXIjiTrCWNcMUN-123" edge="1">
          <mxGeometry relative="1" as="geometry">
            <Array as="points">
              <mxPoint x="-565" y="470" />
            </Array>
          </mxGeometry>
        </mxCell>
        <mxCell id="ICtoHCyXIjiTrCWNcMUN-59" value="pointwise:exp" style="rounded=1;whiteSpace=wrap;html=1;fillColor=#f8cecc;strokeColor=#b85450;" parent="1" vertex="1">
          <mxGeometry x="-931" y="559" width="120" height="60" as="geometry" />
        </mxCell>
        <mxCell id="ICtoHCyXIjiTrCWNcMUN-70" style="edgeStyle=none;curved=1;rounded=0;orthogonalLoop=1;jettySize=auto;html=1;fontSize=12;startSize=8;endSize=8;" parent="1" source="ICtoHCyXIjiTrCWNcMUN-65" target="ICtoHCyXIjiTrCWNcMUN-69" edge="1">
          <mxGeometry relative="1" as="geometry" />
        </mxCell>
        <mxCell id="ICtoHCyXIjiTrCWNcMUN-65" value="pointwise:mul&lt;div&gt;same datatype as Q&lt;/div&gt;" style="rounded=1;whiteSpace=wrap;html=1;fillColor=#f8cecc;strokeColor=#b85450;" parent="1" vertex="1">
          <mxGeometry x="-931" y="681" width="120" height="60" as="geometry" />
        </mxCell>
        <mxCell id="ICtoHCyXIjiTrCWNcMUN-68" style="edgeStyle=none;curved=1;rounded=0;orthogonalLoop=1;jettySize=auto;html=1;fontSize=12;startSize=8;endSize=8;" parent="1" source="ICtoHCyXIjiTrCWNcMUN-67" target="ICtoHCyXIjiTrCWNcMUN-65" edge="1">
          <mxGeometry relative="1" as="geometry" />
        </mxCell>
        <mxCell id="ICtoHCyXIjiTrCWNcMUN-67" value="Scale_S" style="ellipse;whiteSpace=wrap;html=1;aspect=fixed;fillColor=#d5e8d4;strokeColor=#82b366;" parent="1" vertex="1">
          <mxGeometry x="-734" y="549" width="80" height="80" as="geometry" />
        </mxCell>
        <mxCell id="ICtoHCyXIjiTrCWNcMUN-72" style="edgeStyle=none;curved=1;rounded=0;orthogonalLoop=1;jettySize=auto;html=1;fontSize=12;startSize=8;endSize=8;" parent="1" source="ICtoHCyXIjiTrCWNcMUN-69" target="ICtoHCyXIjiTrCWNcMUN-71" edge="1">
          <mxGeometry relative="1" as="geometry" />
        </mxCell>
        <mxCell id="ICtoHCyXIjiTrCWNcMUN-69" value="reshape&lt;div&gt;transpose&lt;/div&gt;" style="rounded=1;whiteSpace=wrap;html=1;fillColor=#f8cecc;strokeColor=#b85450;" parent="1" vertex="1">
          <mxGeometry x="-931" y="803" width="120" height="60" as="geometry" />
        </mxCell>
        <mxCell id="ICtoHCyXIjiTrCWNcMUN-92" style="edgeStyle=none;curved=1;rounded=0;orthogonalLoop=1;jettySize=auto;html=1;fontSize=12;startSize=8;endSize=8;" parent="1" source="ICtoHCyXIjiTrCWNcMUN-71" target="ICtoHCyXIjiTrCWNcMUN-88" edge="1">
          <mxGeometry relative="1" as="geometry" />
        </mxCell>
        <mxCell id="ICtoHCyXIjiTrCWNcMUN-71" value="matmul" style="rounded=1;whiteSpace=wrap;html=1;fillColor=#f8cecc;strokeColor=#b85450;" parent="1" vertex="1">
          <mxGeometry x="-931" y="925" width="120" height="60" as="geometry" />
        </mxCell>
        <mxCell id="ICtoHCyXIjiTrCWNcMUN-74" style="edgeStyle=none;curved=1;rounded=0;orthogonalLoop=1;jettySize=auto;html=1;fontSize=12;startSize=8;endSize=8;" parent="1" source="ICtoHCyXIjiTrCWNcMUN-73" target="ICtoHCyXIjiTrCWNcMUN-71" edge="1">
          <mxGeometry relative="1" as="geometry" />
        </mxCell>
        <mxCell id="ICtoHCyXIjiTrCWNcMUN-73" value="dO" style="ellipse;whiteSpace=wrap;html=1;aspect=fixed;fillColor=#d5e8d4;strokeColor=#82b366;" parent="1" vertex="1">
          <mxGeometry x="-734" y="793" width="80" height="80" as="geometry" />
        </mxCell>
        <mxCell id="ICtoHCyXIjiTrCWNcMUN-79" style="edgeStyle=none;curved=1;rounded=0;orthogonalLoop=1;jettySize=auto;html=1;entryX=0.5;entryY=0;entryDx=0;entryDy=0;fontSize=12;startSize=8;endSize=8;" parent="1" source="ICtoHCyXIjiTrCWNcMUN-75" target="ICtoHCyXIjiTrCWNcMUN-78" edge="1">
          <mxGeometry relative="1" as="geometry" />
        </mxCell>
        <mxCell id="ICtoHCyXIjiTrCWNcMUN-75" value="pointwise:mul" style="rounded=1;whiteSpace=wrap;html=1;fillColor=#f8cecc;strokeColor=#b85450;" parent="1" vertex="1">
          <mxGeometry x="-931" y="1170" width="120" height="60" as="geometry" />
        </mxCell>
        <mxCell id="ICtoHCyXIjiTrCWNcMUN-80" style="edgeStyle=none;curved=1;rounded=0;orthogonalLoop=1;jettySize=auto;html=1;fontSize=12;startSize=8;endSize=8;" parent="1" source="ICtoHCyXIjiTrCWNcMUN-77" target="ICtoHCyXIjiTrCWNcMUN-75" edge="1">
          <mxGeometry relative="1" as="geometry" />
        </mxCell>
        <mxCell id="ICtoHCyXIjiTrCWNcMUN-77" value="Descale_S" style="ellipse;whiteSpace=wrap;html=1;aspect=fixed;fillColor=#d5e8d4;strokeColor=#82b366;" parent="1" vertex="1">
          <mxGeometry x="-734" y="1038" width="80" height="80" as="geometry" />
        </mxCell>
        <mxCell id="ICtoHCyXIjiTrCWNcMUN-86" style="edgeStyle=none;curved=1;rounded=0;orthogonalLoop=1;jettySize=auto;html=1;fontSize=12;startSize=8;endSize=8;" parent="1" source="ICtoHCyXIjiTrCWNcMUN-78" target="ICtoHCyXIjiTrCWNcMUN-84" edge="1">
          <mxGeometry relative="1" as="geometry" />
        </mxCell>
        <mxCell id="ICtoHCyXIjiTrCWNcMUN-102" style="edgeStyle=none;curved=1;rounded=0;orthogonalLoop=1;jettySize=auto;html=1;fontSize=12;startSize=8;endSize=8;" parent="1" source="ICtoHCyXIjiTrCWNcMUN-78" target="ICtoHCyXIjiTrCWNcMUN-98" edge="1">
          <mxGeometry relative="1" as="geometry" />
        </mxCell>
        <mxCell id="ICtoHCyXIjiTrCWNcMUN-78" value="pointwise:mul" style="rounded=1;whiteSpace=wrap;html=1;fillColor=#f8cecc;strokeColor=#b85450;" parent="1" vertex="1">
          <mxGeometry x="-931" y="1293" width="120" height="60" as="geometry" />
        </mxCell>
        <mxCell id="ICtoHCyXIjiTrCWNcMUN-82" style="edgeStyle=none;curved=1;rounded=0;orthogonalLoop=1;jettySize=auto;html=1;fontSize=12;startSize=8;endSize=8;" parent="1" source="ICtoHCyXIjiTrCWNcMUN-81" target="ICtoHCyXIjiTrCWNcMUN-78" edge="1">
          <mxGeometry relative="1" as="geometry" />
        </mxCell>
        <mxCell id="ICtoHCyXIjiTrCWNcMUN-81" value="Descale_dO" style="ellipse;whiteSpace=wrap;html=1;aspect=fixed;fillColor=#d5e8d4;strokeColor=#82b366;" parent="1" vertex="1">
          <mxGeometry x="-734" y="1160" width="80" height="80" as="geometry" />
        </mxCell>
        <mxCell id="ICtoHCyXIjiTrCWNcMUN-85" style="edgeStyle=none;curved=1;rounded=0;orthogonalLoop=1;jettySize=auto;html=1;fontSize=12;startSize=8;endSize=8;" parent="1" source="ICtoHCyXIjiTrCWNcMUN-83" target="ICtoHCyXIjiTrCWNcMUN-84" edge="1">
          <mxGeometry relative="1" as="geometry" />
        </mxCell>
        <mxCell id="ICtoHCyXIjiTrCWNcMUN-83" value="Scale_dV" style="ellipse;whiteSpace=wrap;html=1;aspect=fixed;fillColor=#d5e8d4;strokeColor=#82b366;" parent="1" vertex="1">
          <mxGeometry x="-734" y="1283" width="80" height="80" as="geometry" />
        </mxCell>
        <mxCell id="ICtoHCyXIjiTrCWNcMUN-104" style="edgeStyle=none;curved=1;rounded=0;orthogonalLoop=1;jettySize=auto;html=1;fontSize=12;startSize=8;endSize=8;" parent="1" source="ICtoHCyXIjiTrCWNcMUN-84" target="ICtoHCyXIjiTrCWNcMUN-103" edge="1">
          <mxGeometry relative="1" as="geometry" />
        </mxCell>
        <mxCell id="ICtoHCyXIjiTrCWNcMUN-84" value="pointwise:mul" style="rounded=1;whiteSpace=wrap;html=1;fillColor=#f8cecc;strokeColor=#b85450;" parent="1" vertex="1">
          <mxGeometry x="-931" y="1416" width="120" height="60" as="geometry" />
        </mxCell>
        <mxCell id="ICtoHCyXIjiTrCWNcMUN-93" style="edgeStyle=none;curved=1;rounded=0;orthogonalLoop=1;jettySize=auto;html=1;fontSize=12;startSize=8;endSize=8;" parent="1" source="ICtoHCyXIjiTrCWNcMUN-88" target="ICtoHCyXIjiTrCWNcMUN-75" edge="1">
          <mxGeometry relative="1" as="geometry" />
        </mxCell>
        <mxCell id="ICtoHCyXIjiTrCWNcMUN-88" value="reduction:add" style="rounded=1;whiteSpace=wrap;html=1;" parent="1" vertex="1">
          <mxGeometry x="-931" y="1048" width="120" height="60" as="geometry" />
        </mxCell>
        <mxCell id="ICtoHCyXIjiTrCWNcMUN-95" style="edgeStyle=none;curved=1;rounded=0;orthogonalLoop=1;jettySize=auto;html=1;fontSize=12;startSize=8;endSize=8;dashed=1;endArrow=none;endFill=0;" parent="1" source="ICtoHCyXIjiTrCWNcMUN-94" target="ICtoHCyXIjiTrCWNcMUN-88" edge="1">
          <mxGeometry relative="1" as="geometry" />
        </mxCell>
        <mxCell id="ICtoHCyXIjiTrCWNcMUN-94" value="When &#xa;a_dim.size() == 4 &amp;&amp; b_dim.size() == 4 &amp;&amp; c_dim.size() == 4 &amp;&amp; a_dim[1] == b_dim[1] &amp;&amp; a_dim[1] != c_dim[1] &amp;&amp; (a_dim[1] % c_dim[1] == 0)" style="text;whiteSpace=wrap;overflow=hidden;rounded=0;align=left;fillColor=none;perimeterSpacing=1;strokeColor=default;dashed=1;" parent="1" vertex="1">
          <mxGeometry x="-1402" y="1040.5" width="358" height="75" as="geometry" />
        </mxCell>
        <mxCell id="ICtoHCyXIjiTrCWNcMUN-101" style="edgeStyle=none;curved=1;rounded=0;orthogonalLoop=1;jettySize=auto;html=1;fontSize=12;startSize=8;endSize=8;" parent="1" source="ICtoHCyXIjiTrCWNcMUN-98" target="ICtoHCyXIjiTrCWNcMUN-100" edge="1">
          <mxGeometry relative="1" as="geometry" />
        </mxCell>
        <mxCell id="ICtoHCyXIjiTrCWNcMUN-98" value="reduction:amax" style="rounded=1;whiteSpace=wrap;html=1;fillColor=#f8cecc;strokeColor=#b85450;" parent="1" vertex="1">
          <mxGeometry x="-1121" y="1416" width="120" height="60" as="geometry" />
        </mxCell>
        <mxCell id="ICtoHCyXIjiTrCWNcMUN-100" value="Amax_dV" style="ellipse;whiteSpace=wrap;html=1;aspect=fixed;fillColor=#fff2cc;strokeColor=#d6b656;" parent="1" vertex="1">
          <mxGeometry x="-1101" y="1539" width="80" height="80" as="geometry" />
        </mxCell>
        <mxCell id="ICtoHCyXIjiTrCWNcMUN-103" value="dV" style="ellipse;whiteSpace=wrap;html=1;aspect=fixed;fillColor=#fff2cc;strokeColor=#d6b656;" parent="1" vertex="1">
          <mxGeometry x="-911" y="1539" width="80" height="80" as="geometry" />
        </mxCell>
        <mxCell id="ICtoHCyXIjiTrCWNcMUN-115" style="edgeStyle=none;curved=1;rounded=0;orthogonalLoop=1;jettySize=auto;html=1;fontSize=12;startSize=8;endSize=8;" parent="1" source="ICtoHCyXIjiTrCWNcMUN-105" target="ICtoHCyXIjiTrCWNcMUN-113" edge="1">
          <mxGeometry relative="1" as="geometry" />
        </mxCell>
        <mxCell id="ICtoHCyXIjiTrCWNcMUN-105" value="matmul" style="rounded=1;whiteSpace=wrap;html=1;fillColor=#f8cecc;strokeColor=#b85450;" parent="1" vertex="1">
          <mxGeometry x="-340" y="-216" width="120" height="60" as="geometry" />
        </mxCell>
        <mxCell id="ICtoHCyXIjiTrCWNcMUN-106" style="edgeStyle=none;curved=1;rounded=0;orthogonalLoop=1;jettySize=auto;html=1;fontSize=12;startSize=8;endSize=8;" parent="1" source="ICtoHCyXIjiTrCWNcMUN-107" target="ICtoHCyXIjiTrCWNcMUN-105" edge="1">
          <mxGeometry relative="1" as="geometry" />
        </mxCell>
        <mxCell id="ICtoHCyXIjiTrCWNcMUN-107" value="dO" style="ellipse;whiteSpace=wrap;html=1;aspect=fixed;fillColor=#d5e8d4;strokeColor=#82b366;" parent="1" vertex="1">
          <mxGeometry x="-474" y="-345" width="80" height="80" as="geometry" />
        </mxCell>
        <mxCell id="ICtoHCyXIjiTrCWNcMUN-108" style="edgeStyle=none;curved=1;rounded=0;orthogonalLoop=1;jettySize=auto;html=1;fontSize=12;startSize=8;endSize=8;" parent="1" source="ICtoHCyXIjiTrCWNcMUN-109" target="ICtoHCyXIjiTrCWNcMUN-105" edge="1">
          <mxGeometry relative="1" as="geometry" />
        </mxCell>
        <mxCell id="ICtoHCyXIjiTrCWNcMUN-109" value="V&lt;div&gt;transposed&lt;/div&gt;" style="ellipse;whiteSpace=wrap;html=1;aspect=fixed;fillColor=#d5e8d4;strokeColor=#82b366;" parent="1" vertex="1">
          <mxGeometry x="-143" y="-345" width="80" height="80" as="geometry" />
        </mxCell>
        <mxCell id="ICtoHCyXIjiTrCWNcMUN-116" style="edgeStyle=none;curved=1;rounded=0;orthogonalLoop=1;jettySize=auto;html=1;fontSize=12;startSize=8;endSize=8;" parent="1" source="ICtoHCyXIjiTrCWNcMUN-111" target="ICtoHCyXIjiTrCWNcMUN-113" edge="1">
          <mxGeometry relative="1" as="geometry" />
        </mxCell>
        <mxCell id="ICtoHCyXIjiTrCWNcMUN-111" value="Descale_dO" style="ellipse;whiteSpace=wrap;html=1;aspect=fixed;fillColor=#d5e8d4;strokeColor=#82b366;" parent="1" vertex="1">
          <mxGeometry x="-143" y="-221" width="80" height="80" as="geometry" />
        </mxCell>
        <mxCell id="ICtoHCyXIjiTrCWNcMUN-117" style="edgeStyle=none;curved=1;rounded=0;orthogonalLoop=1;jettySize=auto;html=1;fontSize=12;startSize=8;endSize=8;" parent="1" source="ICtoHCyXIjiTrCWNcMUN-112" target="ICtoHCyXIjiTrCWNcMUN-114" edge="1">
          <mxGeometry relative="1" as="geometry" />
        </mxCell>
        <mxCell id="ICtoHCyXIjiTrCWNcMUN-112" value="Descale_V" style="ellipse;whiteSpace=wrap;html=1;aspect=fixed;fillColor=#d5e8d4;strokeColor=#82b366;" parent="1" vertex="1">
          <mxGeometry x="-143" y="-112" width="80" height="80" as="geometry" />
        </mxCell>
        <mxCell id="ICtoHCyXIjiTrCWNcMUN-118" style="edgeStyle=none;curved=1;rounded=0;orthogonalLoop=1;jettySize=auto;html=1;fontSize=12;startSize=8;endSize=8;" parent="1" source="ICtoHCyXIjiTrCWNcMUN-113" target="ICtoHCyXIjiTrCWNcMUN-114" edge="1">
          <mxGeometry relative="1" as="geometry" />
        </mxCell>
        <mxCell id="ICtoHCyXIjiTrCWNcMUN-113" value="pointwise:mul" style="rounded=1;whiteSpace=wrap;html=1;fillColor=#f8cecc;strokeColor=#b85450;" parent="1" vertex="1">
          <mxGeometry x="-340" y="-102" width="120" height="60" as="geometry" />
        </mxCell>
        <mxCell id="ICtoHCyXIjiTrCWNcMUN-120" style="edgeStyle=none;curved=1;rounded=0;orthogonalLoop=1;jettySize=auto;html=1;fontSize=12;startSize=8;endSize=8;" parent="1" source="ICtoHCyXIjiTrCWNcMUN-114" target="ICtoHCyXIjiTrCWNcMUN-119" edge="1">
          <mxGeometry relative="1" as="geometry" />
        </mxCell>
        <mxCell id="ICtoHCyXIjiTrCWNcMUN-114" value="pointwise:mul" style="rounded=1;whiteSpace=wrap;html=1;fillColor=#f8cecc;strokeColor=#b85450;" parent="1" vertex="1">
          <mxGeometry x="-340" y="7" width="120" height="60" as="geometry" />
        </mxCell>
        <mxCell id="ICtoHCyXIjiTrCWNcMUN-125" style="edgeStyle=none;curved=1;rounded=0;orthogonalLoop=1;jettySize=auto;html=1;fontSize=12;startSize=8;endSize=8;" parent="1" source="ICtoHCyXIjiTrCWNcMUN-119" target="ICtoHCyXIjiTrCWNcMUN-123" edge="1">
          <mxGeometry relative="1" as="geometry" />
        </mxCell>
        <mxCell id="ICtoHCyXIjiTrCWNcMUN-119" value="pointwise:sub" style="rounded=1;whiteSpace=wrap;html=1;fillColor=#f8cecc;strokeColor=#b85450;" parent="1" vertex="1">
          <mxGeometry x="-340" y="230" width="120" height="60" as="geometry" />
        </mxCell>
        <mxCell id="ICtoHCyXIjiTrCWNcMUN-129" style="edgeStyle=none;curved=1;rounded=0;orthogonalLoop=1;jettySize=auto;html=1;fontSize=12;startSize=8;endSize=8;" parent="1" source="ICtoHCyXIjiTrCWNcMUN-123" target="ICtoHCyXIjiTrCWNcMUN-126" edge="1">
          <mxGeometry relative="1" as="geometry" />
        </mxCell>
        <mxCell id="ICtoHCyXIjiTrCWNcMUN-123" value="pointwise:mul" style="rounded=1;whiteSpace=wrap;html=1;fillColor=#f8cecc;strokeColor=#b85450;" parent="1" vertex="1">
          <mxGeometry x="-340" y="681" width="120" height="60" as="geometry" />
        </mxCell>
        <mxCell id="ICtoHCyXIjiTrCWNcMUN-133" style="edgeStyle=none;curved=1;rounded=0;orthogonalLoop=1;jettySize=auto;html=1;fontSize=12;startSize=8;endSize=8;" parent="1" source="ICtoHCyXIjiTrCWNcMUN-126" target="ICtoHCyXIjiTrCWNcMUN-131" edge="1">
          <mxGeometry relative="1" as="geometry" />
        </mxCell>
        <mxCell id="ICtoHCyXIjiTrCWNcMUN-137" style="edgeStyle=none;curved=1;rounded=0;orthogonalLoop=1;jettySize=auto;html=1;fontSize=12;startSize=8;endSize=8;" parent="1" source="ICtoHCyXIjiTrCWNcMUN-126" target="ICtoHCyXIjiTrCWNcMUN-130" edge="1">
          <mxGeometry relative="1" as="geometry" />
        </mxCell>
        <mxCell id="ICtoHCyXIjiTrCWNcMUN-126" value="pointwise:mul" style="rounded=1;whiteSpace=wrap;html=1;gradientDirection=north;" parent="1" vertex="1">
          <mxGeometry x="-340" y="803" width="120" height="60" as="geometry" />
        </mxCell>
        <mxCell id="ICtoHCyXIjiTrCWNcMUN-128" style="edgeStyle=none;curved=1;rounded=0;orthogonalLoop=1;jettySize=auto;html=1;fontSize=12;startSize=8;endSize=8;" parent="1" source="ICtoHCyXIjiTrCWNcMUN-127" target="ICtoHCyXIjiTrCWNcMUN-126" edge="1">
          <mxGeometry relative="1" as="geometry" />
        </mxCell>
        <mxCell id="ICtoHCyXIjiTrCWNcMUN-127" value="Attn_scale" style="ellipse;whiteSpace=wrap;html=1;aspect=fixed;gradientDirection=north;" parent="1" vertex="1">
          <mxGeometry x="-143" y="684" width="80" height="80" as="geometry" />
        </mxCell>
        <mxCell id="ICtoHCyXIjiTrCWNcMUN-160" style="edgeStyle=none;curved=1;rounded=0;orthogonalLoop=1;jettySize=auto;html=1;fontSize=12;startSize=8;endSize=8;" parent="1" source="ICtoHCyXIjiTrCWNcMUN-130" target="ICtoHCyXIjiTrCWNcMUN-142" edge="1">
          <mxGeometry relative="1" as="geometry" />
        </mxCell>
        <mxCell id="ICtoHCyXIjiTrCWNcMUN-174" style="edgeStyle=none;curved=1;rounded=0;orthogonalLoop=1;jettySize=auto;html=1;fontSize=12;startSize=8;endSize=8;" parent="1" source="ICtoHCyXIjiTrCWNcMUN-130" target="ICtoHCyXIjiTrCWNcMUN-173" edge="1">
          <mxGeometry relative="1" as="geometry">
            <Array as="points">
              <mxPoint x="5" y="964" />
            </Array>
          </mxGeometry>
        </mxCell>
        <mxCell id="ICtoHCyXIjiTrCWNcMUN-130" value="pointwise:mul&lt;div&gt;same datatype as dO&lt;/div&gt;" style="rounded=1;whiteSpace=wrap;html=1;fillColor=#f8cecc;strokeColor=#b85450;" parent="1" vertex="1">
          <mxGeometry x="-340" y="925" width="120" height="60" as="geometry" />
        </mxCell>
        <mxCell id="ICtoHCyXIjiTrCWNcMUN-134" style="edgeStyle=none;curved=1;rounded=0;orthogonalLoop=1;jettySize=auto;html=1;fontSize=12;startSize=8;endSize=8;" parent="1" source="ICtoHCyXIjiTrCWNcMUN-131" target="ICtoHCyXIjiTrCWNcMUN-132" edge="1">
          <mxGeometry relative="1" as="geometry" />
        </mxCell>
        <mxCell id="ICtoHCyXIjiTrCWNcMUN-131" value="reduction:amax" style="rounded=1;whiteSpace=wrap;html=1;fillColor=#f8cecc;strokeColor=#b85450;" parent="1" vertex="1">
          <mxGeometry x="-530" y="925" width="120" height="60" as="geometry" />
        </mxCell>
        <mxCell id="ICtoHCyXIjiTrCWNcMUN-132" value="Amax_dP" style="ellipse;whiteSpace=wrap;html=1;aspect=fixed;fillColor=#fff2cc;strokeColor=#d6b656;" parent="1" vertex="1">
          <mxGeometry x="-510" y="1038" width="80" height="80" as="geometry" />
        </mxCell>
        <mxCell id="ICtoHCyXIjiTrCWNcMUN-136" style="edgeStyle=none;curved=1;rounded=0;orthogonalLoop=1;jettySize=auto;html=1;fontSize=12;startSize=8;endSize=8;" parent="1" source="ICtoHCyXIjiTrCWNcMUN-135" target="ICtoHCyXIjiTrCWNcMUN-130" edge="1">
          <mxGeometry relative="1" as="geometry" />
        </mxCell>
        <mxCell id="ICtoHCyXIjiTrCWNcMUN-135" value="Scale_dP" style="ellipse;whiteSpace=wrap;html=1;aspect=fixed;fillColor=#d5e8d4;strokeColor=#82b366;" parent="1" vertex="1">
          <mxGeometry x="-143" y="793" width="80" height="80" as="geometry" />
        </mxCell>
        <mxCell id="ICtoHCyXIjiTrCWNcMUN-161" style="edgeStyle=none;curved=1;rounded=0;orthogonalLoop=1;jettySize=auto;html=1;fontSize=12;startSize=8;endSize=8;" parent="1" source="ICtoHCyXIjiTrCWNcMUN-138" target="ICtoHCyXIjiTrCWNcMUN-142" edge="1">
          <mxGeometry relative="1" as="geometry" />
        </mxCell>
        <mxCell id="ICtoHCyXIjiTrCWNcMUN-138" value="reshape&lt;div&gt;transpose&lt;/div&gt;" style="rounded=1;whiteSpace=wrap;html=1;fillColor=#f8cecc;strokeColor=#b85450;" parent="1" vertex="1">
          <mxGeometry x="-165" y="1048" width="120" height="60" as="geometry" />
        </mxCell>
        <mxCell id="ICtoHCyXIjiTrCWNcMUN-140" style="edgeStyle=none;curved=1;rounded=0;orthogonalLoop=1;jettySize=auto;html=1;fontSize=12;startSize=8;endSize=8;" parent="1" source="ICtoHCyXIjiTrCWNcMUN-139" target="ICtoHCyXIjiTrCWNcMUN-138" edge="1">
          <mxGeometry relative="1" as="geometry" />
        </mxCell>
        <mxCell id="ICtoHCyXIjiTrCWNcMUN-139" value="K&lt;br&gt;transposed" style="ellipse;whiteSpace=wrap;html=1;aspect=fixed;fillColor=#d5e8d4;strokeColor=#82b366;" parent="1" vertex="1">
          <mxGeometry x="17" y="1038" width="80" height="80" as="geometry" />
        </mxCell>
        <mxCell id="ICtoHCyXIjiTrCWNcMUN-162" style="edgeStyle=none;curved=1;rounded=0;orthogonalLoop=1;jettySize=auto;html=1;fontSize=12;startSize=8;endSize=8;" parent="1" source="ICtoHCyXIjiTrCWNcMUN-142" target="ICtoHCyXIjiTrCWNcMUN-154" edge="1">
          <mxGeometry relative="1" as="geometry" />
        </mxCell>
        <mxCell id="ICtoHCyXIjiTrCWNcMUN-142" value="matmul" style="rounded=1;whiteSpace=wrap;html=1;fillColor=#f8cecc;strokeColor=#b85450;" parent="1" vertex="1">
          <mxGeometry x="-340" y="1048" width="120" height="60" as="geometry" />
        </mxCell>
        <mxCell id="ICtoHCyXIjiTrCWNcMUN-168" style="edgeStyle=none;curved=1;rounded=0;orthogonalLoop=1;jettySize=auto;html=1;fontSize=12;startSize=8;endSize=8;" parent="1" source="ICtoHCyXIjiTrCWNcMUN-145" target="ICtoHCyXIjiTrCWNcMUN-148" edge="1">
          <mxGeometry relative="1" as="geometry" />
        </mxCell>
        <mxCell id="ICtoHCyXIjiTrCWNcMUN-145" value="pointwise:mul" style="rounded=1;whiteSpace=wrap;html=1;fillColor=#f8cecc;strokeColor=#b85450;" parent="1" vertex="1">
          <mxGeometry x="-340" y="1293" width="120" height="60" as="geometry" />
        </mxCell>
        <mxCell id="ICtoHCyXIjiTrCWNcMUN-164" style="edgeStyle=none;curved=1;rounded=0;orthogonalLoop=1;jettySize=auto;html=1;fontSize=12;startSize=8;endSize=8;" parent="1" source="ICtoHCyXIjiTrCWNcMUN-147" target="ICtoHCyXIjiTrCWNcMUN-145" edge="1">
          <mxGeometry relative="1" as="geometry" />
        </mxCell>
        <mxCell id="ICtoHCyXIjiTrCWNcMUN-147" value="Descale_dP" style="ellipse;whiteSpace=wrap;html=1;aspect=fixed;fillColor=#d5e8d4;strokeColor=#82b366;" parent="1" vertex="1">
          <mxGeometry x="-143" y="1160" width="80" height="80" as="geometry" />
        </mxCell>
        <mxCell id="ICtoHCyXIjiTrCWNcMUN-169" style="edgeStyle=none;curved=1;rounded=0;orthogonalLoop=1;jettySize=auto;html=1;fontSize=12;startSize=8;endSize=8;" parent="1" source="ICtoHCyXIjiTrCWNcMUN-148" target="ICtoHCyXIjiTrCWNcMUN-153" edge="1">
          <mxGeometry relative="1" as="geometry" />
        </mxCell>
        <mxCell id="ICtoHCyXIjiTrCWNcMUN-170" style="edgeStyle=none;curved=1;rounded=0;orthogonalLoop=1;jettySize=auto;html=1;fontSize=12;startSize=8;endSize=8;" parent="1" source="ICtoHCyXIjiTrCWNcMUN-148" target="ICtoHCyXIjiTrCWNcMUN-157" edge="1">
          <mxGeometry relative="1" as="geometry" />
        </mxCell>
        <mxCell id="ICtoHCyXIjiTrCWNcMUN-148" value="pointwise:mul" style="rounded=1;whiteSpace=wrap;html=1;fillColor=#f8cecc;strokeColor=#b85450;" parent="1" vertex="1">
          <mxGeometry x="-340" y="1416" width="120" height="60" as="geometry" />
        </mxCell>
        <mxCell id="ICtoHCyXIjiTrCWNcMUN-165" style="edgeStyle=none;curved=1;rounded=0;orthogonalLoop=1;jettySize=auto;html=1;fontSize=12;startSize=8;endSize=8;" parent="1" source="ICtoHCyXIjiTrCWNcMUN-150" target="ICtoHCyXIjiTrCWNcMUN-148" edge="1">
          <mxGeometry relative="1" as="geometry" />
        </mxCell>
        <mxCell id="ICtoHCyXIjiTrCWNcMUN-150" value="Descale_K" style="ellipse;whiteSpace=wrap;html=1;aspect=fixed;fillColor=#d5e8d4;strokeColor=#82b366;" parent="1" vertex="1">
          <mxGeometry x="-143" y="1282" width="80" height="80" as="geometry" />
        </mxCell>
        <mxCell id="ICtoHCyXIjiTrCWNcMUN-166" style="edgeStyle=none;curved=1;rounded=0;orthogonalLoop=1;jettySize=auto;html=1;fontSize=12;startSize=8;endSize=8;" parent="1" source="ICtoHCyXIjiTrCWNcMUN-152" target="ICtoHCyXIjiTrCWNcMUN-153" edge="1">
          <mxGeometry relative="1" as="geometry" />
        </mxCell>
        <mxCell id="ICtoHCyXIjiTrCWNcMUN-152" value="Scale_dQ" style="ellipse;whiteSpace=wrap;html=1;aspect=fixed;fillColor=#d5e8d4;strokeColor=#82b366;" parent="1" vertex="1">
          <mxGeometry x="-143" y="1405" width="80" height="80" as="geometry" />
        </mxCell>
        <mxCell id="ICtoHCyXIjiTrCWNcMUN-172" style="edgeStyle=none;curved=1;rounded=0;orthogonalLoop=1;jettySize=auto;html=1;fontSize=12;startSize=8;endSize=8;" parent="1" source="ICtoHCyXIjiTrCWNcMUN-153" target="ICtoHCyXIjiTrCWNcMUN-159" edge="1">
          <mxGeometry relative="1" as="geometry" />
        </mxCell>
        <mxCell id="ICtoHCyXIjiTrCWNcMUN-153" value="pointwise:mul" style="rounded=1;whiteSpace=wrap;html=1;fillColor=#f8cecc;strokeColor=#b85450;" parent="1" vertex="1">
          <mxGeometry x="-340" y="1539" width="120" height="60" as="geometry" />
        </mxCell>
        <mxCell id="ICtoHCyXIjiTrCWNcMUN-167" style="edgeStyle=none;curved=1;rounded=0;orthogonalLoop=1;jettySize=auto;html=1;fontSize=12;startSize=8;endSize=8;" parent="1" source="ICtoHCyXIjiTrCWNcMUN-154" target="ICtoHCyXIjiTrCWNcMUN-145" edge="1">
          <mxGeometry relative="1" as="geometry" />
        </mxCell>
        <mxCell id="ICtoHCyXIjiTrCWNcMUN-154" value="reduction:add" style="rounded=1;whiteSpace=wrap;html=1;" parent="1" vertex="1">
          <mxGeometry x="-340" y="1171" width="120" height="60" as="geometry" />
        </mxCell>
        <mxCell id="ICtoHCyXIjiTrCWNcMUN-163" style="edgeStyle=none;curved=1;rounded=0;orthogonalLoop=1;jettySize=auto;html=1;fontSize=12;startSize=8;endSize=8;dashed=1;endArrow=none;endFill=0;" parent="1" source="ICtoHCyXIjiTrCWNcMUN-156" target="ICtoHCyXIjiTrCWNcMUN-154" edge="1">
          <mxGeometry relative="1" as="geometry" />
        </mxCell>
        <mxCell id="ICtoHCyXIjiTrCWNcMUN-156" value="When &#xa;a_dim.size() == 4 &amp;&amp; b_dim.size() == 4 &amp;&amp; c_dim.size() == 4 &amp;&amp; a_dim[1] == b_dim[1] &amp;&amp; a_dim[1] != c_dim[1] &amp;&amp; (a_dim[1] % c_dim[1] == 0)" style="text;whiteSpace=wrap;overflow=hidden;rounded=0;align=left;fillColor=none;perimeterSpacing=1;strokeColor=default;dashed=1;" parent="1" vertex="1">
          <mxGeometry x="-746" y="1399" width="358" height="75" as="geometry" />
        </mxCell>
        <mxCell id="ICtoHCyXIjiTrCWNcMUN-171" style="edgeStyle=none;curved=1;rounded=0;orthogonalLoop=1;jettySize=auto;html=1;fontSize=12;startSize=8;endSize=8;" parent="1" source="ICtoHCyXIjiTrCWNcMUN-157" target="ICtoHCyXIjiTrCWNcMUN-158" edge="1">
          <mxGeometry relative="1" as="geometry" />
        </mxCell>
        <mxCell id="ICtoHCyXIjiTrCWNcMUN-157" value="reduction:amax" style="rounded=1;whiteSpace=wrap;html=1;fillColor=#f8cecc;strokeColor=#b85450;" parent="1" vertex="1">
          <mxGeometry x="-530" y="1539" width="120" height="60" as="geometry" />
        </mxCell>
        <mxCell id="ICtoHCyXIjiTrCWNcMUN-158" value="Amax_dQ" style="ellipse;whiteSpace=wrap;html=1;aspect=fixed;fillColor=#fff2cc;strokeColor=#d6b656;" parent="1" vertex="1">
          <mxGeometry x="-510" y="1662" width="80" height="80" as="geometry" />
        </mxCell>
        <mxCell id="ICtoHCyXIjiTrCWNcMUN-159" value="dQ" style="ellipse;whiteSpace=wrap;html=1;aspect=fixed;fillColor=#fff2cc;strokeColor=#d6b656;" parent="1" vertex="1">
          <mxGeometry x="-320" y="1662" width="80" height="80" as="geometry" />
        </mxCell>
        <mxCell id="ICtoHCyXIjiTrCWNcMUN-189" style="edgeStyle=none;curved=1;rounded=0;orthogonalLoop=1;jettySize=auto;html=1;fontSize=12;startSize=8;endSize=8;" parent="1" source="ICtoHCyXIjiTrCWNcMUN-173" target="ICtoHCyXIjiTrCWNcMUN-175" edge="1">
          <mxGeometry relative="1" as="geometry" />
        </mxCell>
        <mxCell id="ICtoHCyXIjiTrCWNcMUN-173" value="reshape&lt;div&gt;transpose&lt;/div&gt;" style="rounded=1;whiteSpace=wrap;html=1;fillColor=#f8cecc;strokeColor=#b85450;" parent="1" vertex="1">
          <mxGeometry x="159" y="1048" width="120" height="60" as="geometry" />
        </mxCell>
        <mxCell id="ICtoHCyXIjiTrCWNcMUN-190" style="edgeStyle=none;curved=1;rounded=0;orthogonalLoop=1;jettySize=auto;html=1;fontSize=12;startSize=8;endSize=8;" parent="1" source="ICtoHCyXIjiTrCWNcMUN-175" target="ICtoHCyXIjiTrCWNcMUN-182" edge="1">
          <mxGeometry relative="1" as="geometry" />
        </mxCell>
        <mxCell id="ICtoHCyXIjiTrCWNcMUN-175" value="matmul" style="rounded=1;whiteSpace=wrap;html=1;fillColor=#f8cecc;strokeColor=#b85450;" parent="1" vertex="1">
          <mxGeometry x="159" y="1171" width="120" height="60" as="geometry" />
        </mxCell>
        <mxCell id="ICtoHCyXIjiTrCWNcMUN-192" style="edgeStyle=none;curved=1;rounded=0;orthogonalLoop=1;jettySize=auto;html=1;fontSize=12;startSize=8;endSize=8;" parent="1" source="ICtoHCyXIjiTrCWNcMUN-176" target="ICtoHCyXIjiTrCWNcMUN-178" edge="1">
          <mxGeometry relative="1" as="geometry" />
        </mxCell>
        <mxCell id="ICtoHCyXIjiTrCWNcMUN-176" value="pointwise:mul" style="rounded=1;whiteSpace=wrap;html=1;fillColor=#f8cecc;strokeColor=#b85450;" parent="1" vertex="1">
          <mxGeometry x="159" y="1416" width="120" height="60" as="geometry" />
        </mxCell>
        <mxCell id="ICtoHCyXIjiTrCWNcMUN-195" style="edgeStyle=none;curved=1;rounded=0;orthogonalLoop=1;jettySize=auto;html=1;fontSize=12;startSize=8;endSize=8;" parent="1" source="ICtoHCyXIjiTrCWNcMUN-177" target="ICtoHCyXIjiTrCWNcMUN-176" edge="1">
          <mxGeometry relative="1" as="geometry" />
        </mxCell>
        <mxCell id="ICtoHCyXIjiTrCWNcMUN-177" value="Descale_dP" style="ellipse;whiteSpace=wrap;html=1;aspect=fixed;fillColor=#d5e8d4;strokeColor=#82b366;" parent="1" vertex="1">
          <mxGeometry x="357" y="1283" width="80" height="80" as="geometry" />
        </mxCell>
        <mxCell id="ICtoHCyXIjiTrCWNcMUN-193" style="edgeStyle=none;curved=1;rounded=0;orthogonalLoop=1;jettySize=auto;html=1;fontSize=12;startSize=8;endSize=8;" parent="1" source="ICtoHCyXIjiTrCWNcMUN-178" target="ICtoHCyXIjiTrCWNcMUN-181" edge="1">
          <mxGeometry relative="1" as="geometry" />
        </mxCell>
        <mxCell id="ICtoHCyXIjiTrCWNcMUN-194" style="edgeStyle=none;curved=1;rounded=0;orthogonalLoop=1;jettySize=auto;html=1;fontSize=12;startSize=8;endSize=8;" parent="1" source="ICtoHCyXIjiTrCWNcMUN-178" target="ICtoHCyXIjiTrCWNcMUN-183" edge="1">
          <mxGeometry relative="1" as="geometry" />
        </mxCell>
        <mxCell id="ICtoHCyXIjiTrCWNcMUN-178" value="pointwise:mul" style="rounded=1;whiteSpace=wrap;html=1;fillColor=#f8cecc;strokeColor=#b85450;" parent="1" vertex="1">
          <mxGeometry x="159" y="1539" width="120" height="60" as="geometry" />
        </mxCell>
        <mxCell id="ICtoHCyXIjiTrCWNcMUN-196" style="edgeStyle=none;curved=1;rounded=0;orthogonalLoop=1;jettySize=auto;html=1;fontSize=12;startSize=8;endSize=8;" parent="1" source="ICtoHCyXIjiTrCWNcMUN-179" target="ICtoHCyXIjiTrCWNcMUN-178" edge="1">
          <mxGeometry relative="1" as="geometry" />
        </mxCell>
        <mxCell id="ICtoHCyXIjiTrCWNcMUN-179" value="Descale_Q" style="ellipse;whiteSpace=wrap;html=1;aspect=fixed;fillColor=#d5e8d4;strokeColor=#82b366;" parent="1" vertex="1">
          <mxGeometry x="357" y="1405" width="80" height="80" as="geometry" />
        </mxCell>
        <mxCell id="ICtoHCyXIjiTrCWNcMUN-197" style="edgeStyle=none;curved=1;rounded=0;orthogonalLoop=1;jettySize=auto;html=1;fontSize=12;startSize=8;endSize=8;" parent="1" source="ICtoHCyXIjiTrCWNcMUN-180" target="ICtoHCyXIjiTrCWNcMUN-181" edge="1">
          <mxGeometry relative="1" as="geometry" />
        </mxCell>
        <mxCell id="ICtoHCyXIjiTrCWNcMUN-180" value="Scale_dK" style="ellipse;whiteSpace=wrap;html=1;aspect=fixed;fillColor=#d5e8d4;strokeColor=#82b366;" parent="1" vertex="1">
          <mxGeometry x="357" y="1528" width="80" height="80" as="geometry" />
        </mxCell>
        <mxCell id="ICtoHCyXIjiTrCWNcMUN-198" style="edgeStyle=none;curved=1;rounded=0;orthogonalLoop=1;jettySize=auto;html=1;fontSize=12;startSize=8;endSize=8;" parent="1" source="ICtoHCyXIjiTrCWNcMUN-181" target="ICtoHCyXIjiTrCWNcMUN-185" edge="1">
          <mxGeometry relative="1" as="geometry" />
        </mxCell>
        <mxCell id="ICtoHCyXIjiTrCWNcMUN-181" value="pointwise:mul" style="rounded=1;whiteSpace=wrap;html=1;fillColor=#f8cecc;strokeColor=#b85450;" parent="1" vertex="1">
          <mxGeometry x="159" y="1662" width="120" height="60" as="geometry" />
        </mxCell>
        <mxCell id="ICtoHCyXIjiTrCWNcMUN-191" style="edgeStyle=none;curved=1;rounded=0;orthogonalLoop=1;jettySize=auto;html=1;fontSize=12;startSize=8;endSize=8;" parent="1" source="ICtoHCyXIjiTrCWNcMUN-182" target="ICtoHCyXIjiTrCWNcMUN-176" edge="1">
          <mxGeometry relative="1" as="geometry" />
        </mxCell>
        <mxCell id="ICtoHCyXIjiTrCWNcMUN-182" value="reduction:add" style="rounded=1;whiteSpace=wrap;html=1;" parent="1" vertex="1">
          <mxGeometry x="159" y="1294" width="120" height="60" as="geometry" />
        </mxCell>
        <mxCell id="ICtoHCyXIjiTrCWNcMUN-199" style="edgeStyle=none;curved=1;rounded=0;orthogonalLoop=1;jettySize=auto;html=1;fontSize=12;startSize=8;endSize=8;" parent="1" source="ICtoHCyXIjiTrCWNcMUN-183" target="ICtoHCyXIjiTrCWNcMUN-184" edge="1">
          <mxGeometry relative="1" as="geometry" />
        </mxCell>
        <mxCell id="ICtoHCyXIjiTrCWNcMUN-183" value="reduction:amax" style="rounded=1;whiteSpace=wrap;html=1;fillColor=#f8cecc;strokeColor=#b85450;" parent="1" vertex="1">
          <mxGeometry x="-31" y="1662" width="120" height="60" as="geometry" />
        </mxCell>
        <mxCell id="ICtoHCyXIjiTrCWNcMUN-184" value="Amax_dK" style="ellipse;whiteSpace=wrap;html=1;aspect=fixed;fillColor=#fff2cc;strokeColor=#d6b656;" parent="1" vertex="1">
          <mxGeometry x="-11" y="1785" width="80" height="80" as="geometry" />
        </mxCell>
        <mxCell id="ICtoHCyXIjiTrCWNcMUN-185" value="dK" style="ellipse;whiteSpace=wrap;html=1;aspect=fixed;fillColor=#fff2cc;strokeColor=#d6b656;" parent="1" vertex="1">
          <mxGeometry x="179" y="1785" width="80" height="80" as="geometry" />
        </mxCell>
        <mxCell id="ICtoHCyXIjiTrCWNcMUN-187" style="edgeStyle=none;curved=1;rounded=0;orthogonalLoop=1;jettySize=auto;html=1;fontSize=12;startSize=8;endSize=8;" parent="1" source="ICtoHCyXIjiTrCWNcMUN-186" target="ICtoHCyXIjiTrCWNcMUN-175" edge="1">
          <mxGeometry relative="1" as="geometry" />
        </mxCell>
        <mxCell id="ICtoHCyXIjiTrCWNcMUN-186" value="Q" style="ellipse;whiteSpace=wrap;html=1;aspect=fixed;fillColor=#d5e8d4;strokeColor=#82b366;" parent="1" vertex="1">
          <mxGeometry x="357" y="1038" width="80" height="80" as="geometry" />
        </mxCell>
        <mxCell id="ICtoHCyXIjiTrCWNcMUN-201" style="edgeStyle=none;curved=1;rounded=0;orthogonalLoop=1;jettySize=auto;html=1;fontSize=12;startSize=8;endSize=8;dashed=1;endArrow=none;endFill=0;" parent="1" source="ICtoHCyXIjiTrCWNcMUN-200" target="ICtoHCyXIjiTrCWNcMUN-182" edge="1">
          <mxGeometry relative="1" as="geometry" />
        </mxCell>
        <mxCell id="ICtoHCyXIjiTrCWNcMUN-200" value="When &#xa;a_dim.size() == 4 &amp;&amp; b_dim.size() == 4 &amp;&amp; c_dim.size() == 4 &amp;&amp; a_dim[1] == b_dim[1] &amp;&amp; a_dim[1] != c_dim[1] &amp;&amp; (a_dim[1] % c_dim[1] == 0)" style="text;whiteSpace=wrap;overflow=hidden;rounded=0;align=left;fillColor=none;perimeterSpacing=1;strokeColor=default;dashed=1;" parent="1" vertex="1">
          <mxGeometry x="-207" y="1528" width="358" height="75" as="geometry" />
        </mxCell>
        <mxCell id="ICtoHCyXIjiTrCWNcMUN-203" style="edgeStyle=none;curved=1;rounded=0;orthogonalLoop=1;jettySize=auto;html=1;fontSize=12;startSize=8;endSize=8;dashed=1;endArrow=classic;endFill=1;" parent="1" source="ICtoHCyXIjiTrCWNcMUN-202" target="ICtoHCyXIjiTrCWNcMUN-23" edge="1">
          <mxGeometry relative="1" as="geometry" />
        </mxCell>
        <mxCell id="ICtoHCyXIjiTrCWNcMUN-202" value="&lt;h1 style=&quot;margin-top: 0px;&quot;&gt;Optional nodes&lt;/h1&gt;&lt;p&gt;Transparent nodes are optional&lt;/p&gt;" style="text;html=1;whiteSpace=wrap;overflow=hidden;rounded=0;strokeColor=default;dashed=1;" parent="1" vertex="1">
          <mxGeometry x="-1380" y="-222" width="205" height="76" as="geometry" />
        </mxCell>
        <mxCell id="ICtoHCyXIjiTrCWNcMUN-204" style="edgeStyle=none;curved=1;rounded=0;orthogonalLoop=1;jettySize=auto;html=1;fontSize=12;startSize=8;endSize=8;dashed=1;endArrow=classic;endFill=1;" parent="1" source="ICtoHCyXIjiTrCWNcMUN-205" target="ICtoHCyXIjiTrCWNcMUN-20" edge="1">
          <mxGeometry relative="1" as="geometry">
            <mxPoint x="-931" y="-197" as="targetPoint" />
          </mxGeometry>
        </mxCell>
        <mxCell id="ICtoHCyXIjiTrCWNcMUN-205" value="&lt;h1 style=&quot;margin-top: 0px;&quot;&gt;Inputs&lt;/h1&gt;&lt;p&gt;Green circles are inputs&lt;/p&gt;" style="text;html=1;whiteSpace=wrap;overflow=hidden;rounded=0;strokeColor=default;dashed=1;" parent="1" vertex="1">
          <mxGeometry x="-1380" y="-326" width="205" height="76" as="geometry" />
        </mxCell>
        <mxCell id="ICtoHCyXIjiTrCWNcMUN-206" value="&lt;h1 style=&quot;margin-top: 0px;&quot;&gt;Outputs&lt;/h1&gt;&lt;p&gt;Yellow circles are outputs&lt;/p&gt;" style="text;html=1;whiteSpace=wrap;overflow=hidden;rounded=0;strokeColor=default;dashed=1;" parent="1" vertex="1">
          <mxGeometry x="-1396" y="1399" width="205" height="76" as="geometry" />
        </mxCell>
        <mxCell id="ICtoHCyXIjiTrCWNcMUN-207" style="edgeStyle=none;curved=1;rounded=0;orthogonalLoop=1;jettySize=auto;html=1;fontSize=12;startSize=8;endSize=8;dashed=1;endArrow=classic;endFill=1;" parent="1" source="ICtoHCyXIjiTrCWNcMUN-206" target="ICtoHCyXIjiTrCWNcMUN-100" edge="1">
          <mxGeometry relative="1" as="geometry">
            <mxPoint x="-1467" y="1489" as="sourcePoint" />
            <mxPoint x="-1223" y="1553" as="targetPoint" />
          </mxGeometry>
        </mxCell>
      </root>
    </mxGraphModel>
  </diagram>
</mxfile>
